<svg width="396" height="77" viewBox="0 0 396 77" fill="none" xmlns="http://www.w3.org/2000/svg">
<g clip-path="url(#clip0_0_1)">
<path d="M42 34C42 34 23.5 55 0 72.5H22L42 55L62 72.5H84C60.5 55 42 34 42 34Z" fill="#547726"/>
<path d="M42 1C42 1 23.5 22 0 39.5H22L42 22L62 39.5H84C60.5 22 42 1 42 1Z" fill="#8CC63F"/>
<path d="M104.872 29L109.912 3.8H119.272C122.224 3.8 124.504 4.448 126.112 5.744C127.72 7.04 128.524 8.852 128.524 11.18C128.524 13.316 128.044 15.152 127.084 16.688C126.148 18.2 124.792 19.364 123.016 20.18C121.24 20.972 119.14 21.368 116.716 21.368H108.436L110.344 19.64L108.472 29H104.872ZM110.272 20.036L109.012 18.236H116.788C119.356 18.236 121.348 17.672 122.764 16.544C124.204 15.392 124.924 13.712 124.924 11.504C124.924 9.992 124.408 8.852 123.376 8.084C122.344 7.316 120.868 6.932 118.948 6.932H111.352L113.26 5.096L110.272 20.036ZM130.501 29L135.541 3.8H144.901C147.853 3.8 150.133 4.448 151.741 5.744C153.349 7.04 154.153 8.852 154.153 11.18C154.153 13.316 153.673 15.152 152.713 16.688C151.777 18.2 150.421 19.364 148.645 20.18C146.869 20.972 144.769 21.368 142.345 21.368H134.065L135.973 19.64L134.101 29H130.501ZM135.901 20.036L134.641 18.236H142.417C144.985 18.236 146.977 17.672 148.393 16.544C149.833 15.392 150.553 13.712 150.553 11.504C150.553 9.992 150.037 8.852 149.005 8.084C147.973 7.316 146.497 6.932 144.577 6.932H136.981L138.889 5.096L135.901 20.036ZM156.13 29L161.17 3.8H164.086L171.646 22.88L170.098 22.844L184.894 3.8H187.99L182.95 29H179.494L183.49 9.128L184.39 9.2L171.25 25.94H169.594L162.79 9.128L163.546 9.236L159.586 29H156.13ZM190.513 20.612L191.089 17.624H200.773L200.161 20.612H190.513ZM204.294 29L209.334 3.8H218.694C221.646 3.8 223.926 4.448 225.534 5.744C227.142 7.04 227.946 8.852 227.946 11.18C227.946 13.316 227.466 15.152 226.506 16.688C225.57 18.2 224.214 19.364 222.438 20.18C220.662 20.972 218.562 21.368 216.138 21.368H207.858L209.766 19.64L207.894 29H204.294ZM209.694 20.036L208.434 18.236H216.21C218.778 18.236 220.77 17.672 222.186 16.544C223.626 15.392 224.346 13.712 224.346 11.504C224.346 9.992 223.83 8.852 222.798 8.084C221.766 7.316 220.29 6.932 218.37 6.932H210.774L212.682 5.096L209.694 20.036ZM224.841 29L241.329 3.8H244.893L251.265 29H247.701L242.085 5.744H243.525L228.729 29H224.841ZM230.961 22.7L232.545 19.82H246.693L247.197 22.7H230.961ZM255.024 29L260.064 3.8H263.664L259.236 25.868H272.916L272.304 29H255.024ZM281.808 29L275.76 3.8H279.468L284.976 27.056H282.744L297.72 3.8H301.464L285.336 29H281.808ZM305.794 14.672H318.754L318.142 17.732H305.182L305.794 14.672ZM303.85 25.868H318.574L317.962 29H299.638L304.678 3.8H322.462L321.85 6.932H307.63L303.85 25.868ZM323.755 29L328.795 3.8H332.395L327.967 25.868H341.647L341.035 29H323.755ZM355.832 29.288C353.504 29.288 351.584 28.82 350.072 27.884C348.56 26.948 347.504 25.652 346.904 23.996C346.304 22.316 346.232 20.36 346.688 18.128L349.532 3.8H353.132L350.252 18.092C350.012 19.364 349.952 20.504 350.072 21.512C350.192 22.496 350.504 23.336 351.008 24.032C351.512 24.704 352.196 25.22 353.06 25.58C353.924 25.916 354.968 26.084 356.192 26.084C357.704 26.084 359 25.796 360.08 25.22C361.184 24.644 362.096 23.768 362.816 22.592C363.536 21.416 364.076 19.94 364.436 18.164L367.316 3.8H370.844L367.928 18.416C367.208 22.016 365.828 24.728 363.788 26.552C361.772 28.376 359.12 29.288 355.832 29.288ZM377.731 29L382.123 6.932H373.519L374.131 3.8H394.975L394.327 6.932H385.723L381.295 29H377.731Z" fill="black"/>
<path d="M106 51L103.06 42.99H104.83L107.35 50.055H106.51L109.15 42.99H110.725L113.29 50.055H112.465L115.06 42.99H116.725L113.77 51H111.97L109.63 44.745H110.185L107.8 51H106ZM119.623 51L116.683 42.99H118.453L120.973 50.055H120.133L122.773 42.99H124.348L126.913 50.055H126.088L128.683 42.99H130.348L127.393 51H125.593L123.253 44.745H123.808L121.423 51H119.623ZM133.246 51L130.306 42.99H132.076L134.596 50.055H133.756L136.396 42.99H137.971L140.536 50.055H139.711L142.306 42.99H143.971L141.016 51H139.216L136.876 44.745H137.431L135.046 51H133.246ZM145.362 51.105C145.022 51.105 144.732 50.99 144.492 50.76C144.252 50.52 144.132 50.22 144.132 49.86C144.132 49.48 144.252 49.18 144.492 48.96C144.732 48.73 145.022 48.615 145.362 48.615C145.702 48.615 145.992 48.73 146.232 48.96C146.472 49.18 146.592 49.48 146.592 49.86C146.592 50.22 146.472 50.52 146.232 50.76C145.992 50.99 145.702 51.105 145.362 51.105ZM152.864 51.105C152.214 51.105 151.619 50.955 151.079 50.655C150.549 50.355 150.124 49.905 149.804 49.305C149.494 48.695 149.339 47.925 149.339 46.995C149.339 46.055 149.489 45.285 149.789 44.685C150.099 44.085 150.519 43.64 151.049 43.35C151.579 43.05 152.184 42.9 152.864 42.9C153.654 42.9 154.349 43.07 154.949 43.41C155.559 43.75 156.039 44.225 156.389 44.835C156.749 45.445 156.929 46.165 156.929 46.995C156.929 47.825 156.749 48.55 156.389 49.17C156.039 49.78 155.559 50.255 154.949 50.595C154.349 50.935 153.654 51.105 152.864 51.105ZM148.424 53.91V42.99H150.209V44.88L150.149 47.01L150.299 49.14V53.91H148.424ZM152.654 49.5C153.104 49.5 153.504 49.4 153.854 49.2C154.214 49 154.499 48.71 154.709 48.33C154.919 47.95 155.024 47.505 155.024 46.995C155.024 46.475 154.919 46.03 154.709 45.66C154.499 45.28 154.214 44.99 153.854 44.79C153.504 44.59 153.104 44.49 152.654 44.49C152.204 44.49 151.799 44.59 151.439 44.79C151.079 44.99 150.794 45.28 150.584 45.66C150.374 46.03 150.269 46.475 150.269 46.995C150.269 47.505 150.374 47.95 150.584 48.33C150.794 48.71 151.079 49 151.439 49.2C151.799 49.4 152.204 49.5 152.654 49.5ZM163.148 51.105C162.498 51.105 161.903 50.955 161.363 50.655C160.833 50.355 160.408 49.905 160.088 49.305C159.778 48.695 159.623 47.925 159.623 46.995C159.623 46.055 159.773 45.285 160.073 44.685C160.383 44.085 160.803 43.64 161.333 43.35C161.863 43.05 162.468 42.9 163.148 42.9C163.938 42.9 164.633 43.07 165.233 43.41C165.843 43.75 166.323 44.225 166.673 44.835C167.033 45.445 167.213 46.165 167.213 46.995C167.213 47.825 167.033 48.55 166.673 49.17C166.323 49.78 165.843 50.255 165.233 50.595C164.633 50.935 163.938 51.105 163.148 51.105ZM158.708 53.91V42.99H160.493V44.88L160.433 47.01L160.583 49.14V53.91H158.708ZM162.938 49.5C163.388 49.5 163.788 49.4 164.138 49.2C164.498 49 164.783 48.71 164.993 48.33C165.203 47.95 165.308 47.505 165.308 46.995C165.308 46.475 165.203 46.03 164.993 45.66C164.783 45.28 164.498 44.99 164.138 44.79C163.788 44.59 163.388 44.49 162.938 44.49C162.488 44.49 162.083 44.59 161.723 44.79C161.363 44.99 161.078 45.28 160.868 45.66C160.658 46.03 160.553 46.475 160.553 46.995C160.553 47.505 160.658 47.95 160.868 48.33C161.078 48.71 161.363 49 161.723 49.2C162.083 49.4 162.488 49.5 162.938 49.5ZM179.101 42.9C179.741 42.9 180.306 43.025 180.796 43.275C181.296 43.525 181.686 43.91 181.966 44.43C182.246 44.94 182.386 45.6 182.386 46.41V51H180.511V46.65C180.511 45.94 180.356 45.41 180.046 45.06C179.736 44.71 179.291 44.535 178.711 44.535C178.301 44.535 177.936 44.625 177.616 44.805C177.306 44.985 177.061 45.25 176.881 45.6C176.711 45.95 176.626 46.395 176.626 46.935V51H174.751V46.65C174.751 45.94 174.596 45.41 174.286 45.06C173.976 44.71 173.531 44.535 172.951 44.535C172.541 44.535 172.176 44.625 171.856 44.805C171.546 44.985 171.301 45.25 171.121 45.6C170.951 45.95 170.866 46.395 170.866 46.935V51H168.991V42.99H170.776V45.12L170.461 44.49C170.731 43.97 171.121 43.575 171.631 43.305C172.151 43.035 172.741 42.9 173.401 42.9C174.151 42.9 174.801 43.085 175.351 43.455C175.911 43.825 176.281 44.385 176.461 45.135L175.726 44.88C175.986 44.28 176.416 43.8 177.016 43.44C177.616 43.08 178.311 42.9 179.101 42.9ZM189.222 51.105C188.572 51.105 187.977 50.955 187.437 50.655C186.907 50.355 186.482 49.905 186.162 49.305C185.852 48.695 185.697 47.925 185.697 46.995C185.697 46.055 185.847 45.285 186.147 44.685C186.457 44.085 186.877 43.64 187.407 43.35C187.937 43.05 188.542 42.9 189.222 42.9C190.012 42.9 190.707 43.07 191.307 43.41C191.917 43.75 192.397 44.225 192.747 44.835C193.107 45.445 193.287 46.165 193.287 46.995C193.287 47.825 193.107 48.55 192.747 49.17C192.397 49.78 191.917 50.255 191.307 50.595C190.707 50.935 190.012 51.105 189.222 51.105ZM184.782 53.91V42.99H186.567V44.88L186.507 47.01L186.657 49.14V53.91H184.782ZM189.012 49.5C189.462 49.5 189.862 49.4 190.212 49.2C190.572 49 190.857 48.71 191.067 48.33C191.277 47.95 191.382 47.505 191.382 46.995C191.382 46.475 191.277 46.03 191.067 45.66C190.857 45.28 190.572 44.99 190.212 44.79C189.862 44.59 189.462 44.49 189.012 44.49C188.562 44.49 188.157 44.59 187.797 44.79C187.437 44.99 187.152 45.28 186.942 45.66C186.732 46.03 186.627 46.475 186.627 46.995C186.627 47.505 186.732 47.95 186.942 48.33C187.152 48.71 187.437 49 187.797 49.2C188.157 49.4 188.562 49.5 189.012 49.5ZM199.897 51V49.38L199.792 49.035V46.2C199.792 45.65 199.627 45.225 199.297 44.925C198.967 44.615 198.467 44.46 197.797 44.46C197.347 44.46 196.902 44.53 196.462 44.67C196.032 44.81 195.667 45.005 195.367 45.255L194.632 43.89C195.062 43.56 195.572 43.315 196.162 43.155C196.762 42.985 197.382 42.9 198.022 42.9C199.182 42.9 200.077 43.18 200.707 43.74C201.347 44.29 201.667 45.145 201.667 46.305V51H199.897ZM197.377 51.105C196.777 51.105 196.252 51.005 195.802 50.805C195.352 50.595 195.002 50.31 194.752 49.95C194.512 49.58 194.392 49.165 194.392 48.705C194.392 48.255 194.497 47.85 194.707 47.49C194.927 47.13 195.282 46.845 195.772 46.635C196.262 46.425 196.912 46.32 197.722 46.32H200.047V47.565H197.857C197.217 47.565 196.787 47.67 196.567 47.88C196.347 48.08 196.237 48.33 196.237 48.63C196.237 48.97 196.372 49.24 196.642 49.44C196.912 49.64 197.287 49.74 197.767 49.74C198.227 49.74 198.637 49.635 198.997 49.425C199.367 49.215 199.632 48.905 199.792 48.495L200.107 49.62C199.927 50.09 199.602 50.455 199.132 50.715C198.672 50.975 198.087 51.105 197.377 51.105ZM204.074 51V39.87H205.949V51H204.074ZM210.54 51L207.105 42.99H209.055L212.01 50.055H211.05L214.11 42.99H215.91L212.475 51H210.54ZM220.627 51.105C219.737 51.105 218.957 50.93 218.287 50.58C217.627 50.22 217.112 49.73 216.742 49.11C216.382 48.49 216.202 47.785 216.202 46.995C216.202 46.195 216.377 45.49 216.727 44.88C217.087 44.26 217.577 43.775 218.197 43.425C218.827 43.075 219.542 42.9 220.342 42.9C221.122 42.9 221.817 43.07 222.427 43.41C223.037 43.75 223.517 44.23 223.867 44.85C224.217 45.47 224.392 46.2 224.392 47.04C224.392 47.12 224.387 47.21 224.377 47.31C224.377 47.41 224.372 47.505 224.362 47.595H217.687V46.35H223.372L222.637 46.74C222.647 46.28 222.552 45.875 222.352 45.525C222.152 45.175 221.877 44.9 221.527 44.7C221.187 44.5 220.792 44.4 220.342 44.4C219.882 44.4 219.477 44.5 219.127 44.7C218.787 44.9 218.517 45.18 218.317 45.54C218.127 45.89 218.032 46.305 218.032 46.785V47.085C218.032 47.565 218.142 47.99 218.362 48.36C218.582 48.73 218.892 49.015 219.292 49.215C219.692 49.415 220.152 49.515 220.672 49.515C221.122 49.515 221.527 49.445 221.887 49.305C222.247 49.165 222.567 48.945 222.847 48.645L223.852 49.8C223.492 50.22 223.037 50.545 222.487 50.775C221.947 50.995 221.327 51.105 220.627 51.105ZM226.193 51V39.87H228.068V51H226.193ZM233.919 51.105C233.239 51.105 232.639 50.98 232.119 50.73C231.599 50.47 231.194 50.08 230.904 49.56C230.614 49.03 230.469 48.365 230.469 47.565V42.99H232.344V47.31C232.344 48.03 232.504 48.57 232.824 48.93C233.154 49.28 233.619 49.455 234.219 49.455C234.659 49.455 235.039 49.365 235.359 49.185C235.689 49.005 235.944 48.735 236.124 48.375C236.314 48.015 236.409 47.57 236.409 47.04V42.99H238.284V51H236.499V48.84L236.814 49.5C236.544 50.02 236.149 50.42 235.629 50.7C235.109 50.97 234.539 51.105 233.919 51.105ZM243.754 51.105C242.874 51.105 242.194 50.88 241.714 50.43C241.234 49.97 240.994 49.295 240.994 48.405V41.22H242.869V48.36C242.869 48.74 242.964 49.035 243.154 49.245C243.354 49.455 243.629 49.56 243.979 49.56C244.399 49.56 244.749 49.45 245.029 49.23L245.554 50.565C245.334 50.745 245.064 50.88 244.744 50.97C244.424 51.06 244.094 51.105 243.754 51.105ZM239.674 44.55V43.05H245.014V44.55H239.674ZM247.843 51.105C247.503 51.105 247.213 50.99 246.973 50.76C246.733 50.52 246.613 50.22 246.613 49.86C246.613 49.48 246.733 49.18 246.973 48.96C247.213 48.73 247.503 48.615 247.843 48.615C248.183 48.615 248.473 48.73 248.713 48.96C248.953 49.18 249.073 49.48 249.073 49.86C249.073 50.22 248.953 50.52 248.713 50.76C248.473 50.99 248.183 51.105 247.843 51.105ZM251.087 51V42.54C251.087 41.7 251.332 41.03 251.822 40.53C252.322 40.02 253.032 39.765 253.952 39.765C254.282 39.765 254.592 39.8 254.882 39.87C255.182 39.94 255.432 40.05 255.632 40.2L255.122 41.61C254.982 41.5 254.822 41.42 254.642 41.37C254.462 41.31 254.277 41.28 254.087 41.28C253.697 41.28 253.402 41.39 253.202 41.61C253.002 41.82 252.902 42.14 252.902 42.57V43.47L252.962 44.31V51H251.087ZM249.767 44.55V43.05H255.107V44.55H249.767ZM256.427 51V42.99H258.302V51H256.427ZM257.372 41.67C257.022 41.67 256.732 41.56 256.502 41.34C256.282 41.12 256.172 40.855 256.172 40.545C256.172 40.225 256.282 39.96 256.502 39.75C256.732 39.53 257.022 39.42 257.372 39.42C257.722 39.42 258.007 39.525 258.227 39.735C258.457 39.935 258.572 40.19 258.572 40.5C258.572 40.83 258.462 41.11 258.242 41.34C258.022 41.56 257.732 41.67 257.372 41.67Z" fill="#8CC63F"/>
<path d="M104.26 73L106.78 60.4H111.172C112.564 60.4 113.644 60.706 114.412 61.318C115.18 61.918 115.564 62.77 115.564 63.874C115.564 64.954 115.33 65.866 114.862 66.61C114.394 67.354 113.722 67.918 112.846 68.302C111.982 68.686 110.956 68.878 109.768 68.878H105.592L106.096 68.446L105.178 73H104.26ZM106.078 68.5L105.754 68.05H109.768C111.316 68.05 112.51 67.708 113.35 67.024C114.202 66.328 114.628 65.302 114.628 63.946C114.628 63.07 114.322 62.398 113.71 61.93C113.11 61.462 112.246 61.228 111.118 61.228H107.14L107.626 60.76L106.078 68.5ZM120.607 73.072C119.767 73.072 119.035 72.916 118.411 72.604C117.787 72.28 117.301 71.824 116.953 71.236C116.617 70.648 116.449 69.958 116.449 69.166C116.449 68.086 116.677 67.126 117.133 66.286C117.601 65.434 118.237 64.762 119.041 64.27C119.857 63.778 120.787 63.532 121.831 63.532C122.683 63.532 123.415 63.694 124.027 64.018C124.651 64.33 125.131 64.78 125.467 65.368C125.815 65.944 125.989 66.634 125.989 67.438C125.989 68.518 125.755 69.484 125.287 70.336C124.831 71.176 124.195 71.842 123.379 72.334C122.575 72.826 121.651 73.072 120.607 73.072ZM120.679 72.262C121.531 72.262 122.287 72.058 122.947 71.65C123.607 71.242 124.129 70.678 124.513 69.958C124.897 69.226 125.089 68.404 125.089 67.492C125.089 66.484 124.795 65.71 124.207 65.17C123.631 64.618 122.815 64.342 121.759 64.342C120.919 64.342 120.163 64.552 119.491 64.972C118.831 65.38 118.309 65.944 117.925 66.664C117.541 67.384 117.349 68.2 117.349 69.112C117.349 70.108 117.637 70.882 118.213 71.434C118.801 71.986 119.623 72.262 120.679 72.262ZM127.755 73L130.419 59.644H131.319L128.655 73H127.755ZM135.238 73.072C134.722 73.072 134.284 72.964 133.924 72.748C133.576 72.532 133.336 72.22 133.204 71.812C133.072 71.404 133.06 70.918 133.168 70.354L134.932 61.552H135.832L134.086 70.282C133.954 70.942 133.996 71.446 134.212 71.794C134.44 72.13 134.854 72.298 135.454 72.298C135.742 72.298 136.012 72.256 136.264 72.172C136.528 72.076 136.768 71.944 136.984 71.776L137.254 72.442C136.966 72.67 136.642 72.832 136.282 72.928C135.934 73.024 135.586 73.072 135.238 73.072ZM132.628 64.378L132.772 63.604H138.406L138.262 64.378H132.628ZM142.094 73.072C141.578 73.072 141.14 72.964 140.78 72.748C140.432 72.532 140.192 72.22 140.06 71.812C139.928 71.404 139.916 70.918 140.024 70.354L141.788 61.552H142.688L140.942 70.282C140.81 70.942 140.852 71.446 141.068 71.794C141.296 72.13 141.71 72.298 142.31 72.298C142.598 72.298 142.868 72.256 143.12 72.172C143.384 72.076 143.624 71.944 143.84 71.776L144.11 72.442C143.822 72.67 143.498 72.832 143.138 72.928C142.79 73.024 142.442 73.072 142.094 73.072ZM139.484 64.378L139.628 63.604H145.262L145.118 64.378H139.484ZM150.156 73.072C149.316 73.072 148.584 72.916 147.96 72.604C147.336 72.28 146.85 71.824 146.502 71.236C146.166 70.648 145.998 69.958 145.998 69.166C145.998 68.086 146.226 67.126 146.682 66.286C147.15 65.434 147.786 64.762 148.59 64.27C149.406 63.778 150.336 63.532 151.38 63.532C152.232 63.532 152.964 63.694 153.576 64.018C154.2 64.33 154.68 64.78 155.016 65.368C155.364 65.944 155.538 66.634 155.538 67.438C155.538 68.518 155.304 69.484 154.836 70.336C154.38 71.176 153.744 71.842 152.928 72.334C152.124 72.826 151.2 73.072 150.156 73.072ZM150.228 72.262C151.08 72.262 151.836 72.058 152.496 71.65C153.156 71.242 153.678 70.678 154.062 69.958C154.446 69.226 154.638 68.404 154.638 67.492C154.638 66.484 154.344 65.71 153.756 65.17C153.18 64.618 152.364 64.342 151.308 64.342C150.468 64.342 149.712 64.552 149.04 64.972C148.38 65.38 147.858 65.944 147.474 66.664C147.09 67.384 146.898 68.2 146.898 69.112C146.898 70.108 147.186 70.882 147.762 71.434C148.35 71.986 149.172 72.262 150.228 72.262ZM162.38 73.072C161.564 73.072 160.862 72.928 160.274 72.64C159.698 72.34 159.26 71.914 158.96 71.362C158.66 70.798 158.504 70.12 158.492 69.328C158.492 68.2 158.702 67.204 159.122 66.34C159.554 65.464 160.154 64.78 160.922 64.288C161.702 63.784 162.608 63.532 163.64 63.532C164.456 63.532 165.164 63.688 165.764 64C166.376 64.312 166.85 64.762 167.186 65.35C167.534 65.938 167.708 66.634 167.708 67.438C167.708 68.254 167.576 69.004 167.312 69.688C167.048 70.372 166.676 70.966 166.196 71.47C165.728 71.974 165.17 72.37 164.522 72.658C163.874 72.934 163.16 73.072 162.38 73.072ZM156.602 76.492L159.176 63.604H160.058L159.464 66.538L158.96 68.176L158.834 69.904L157.502 76.492H156.602ZM162.398 72.262C163.25 72.262 164.006 72.058 164.666 71.65C165.326 71.242 165.842 70.678 166.214 69.958C166.598 69.226 166.79 68.404 166.79 67.492C166.79 66.484 166.496 65.71 165.908 65.17C165.332 64.618 164.516 64.342 163.46 64.342C162.62 64.342 161.864 64.546 161.192 64.954C160.532 65.362 160.01 65.926 159.626 66.646C159.242 67.366 159.05 68.188 159.05 69.112C159.05 70.108 159.344 70.882 159.932 71.434C160.52 71.986 161.342 72.262 162.398 72.262ZM173.338 73.072C172.51 73.072 171.826 72.91 171.286 72.586C170.758 72.25 170.398 71.782 170.206 71.182C170.014 70.57 169.996 69.856 170.152 69.04L171.232 63.604H172.132L171.052 69.04C170.86 70.036 170.968 70.822 171.376 71.398C171.796 71.974 172.528 72.262 173.572 72.262C174.64 72.262 175.528 71.968 176.236 71.38C176.956 70.78 177.43 69.892 177.658 68.716L178.684 63.604H179.584L177.712 73H176.83L177.37 70.282L177.604 70.516C177.16 71.404 176.566 72.052 175.822 72.46C175.09 72.868 174.262 73.072 173.338 73.072ZM185.379 73.072C184.551 73.072 183.867 72.91 183.327 72.586C182.799 72.25 182.439 71.782 182.247 71.182C182.055 70.57 182.037 69.856 182.193 69.04L183.273 63.604H184.173L183.093 69.04C182.901 70.036 183.009 70.822 183.417 71.398C183.837 71.974 184.569 72.262 185.613 72.262C186.681 72.262 187.569 71.968 188.277 71.38C188.997 70.78 189.471 69.892 189.699 68.716L190.725 63.604H191.625L189.753 73H188.871L189.411 70.282L189.645 70.516C189.201 71.404 188.607 72.052 187.863 72.46C187.131 72.868 186.303 73.072 185.379 73.072ZM199.814 63.532C200.666 63.532 201.356 63.7 201.884 64.036C202.424 64.36 202.79 64.828 202.982 65.44C203.186 66.04 203.204 66.748 203.036 67.564L201.956 73H201.056L202.136 67.564C202.34 66.568 202.226 65.782 201.794 65.206C201.374 64.63 200.636 64.342 199.58 64.342C198.512 64.342 197.618 64.642 196.898 65.242C196.178 65.83 195.698 66.712 195.458 67.888L194.432 73H193.532L195.404 63.604H196.286L195.746 66.322L195.512 66.088C195.956 65.2 196.55 64.552 197.294 64.144C198.038 63.736 198.878 63.532 199.814 63.532ZM212.679 73L210.303 63.604H211.221L213.435 72.496H213.003L218.745 63.604H219.699L213.597 73H212.679ZM223.419 73.072C222.615 73.072 221.907 72.916 221.295 72.604C220.683 72.292 220.209 71.842 219.873 71.254C219.537 70.666 219.369 69.97 219.369 69.166C219.369 68.35 219.495 67.6 219.747 66.916C220.011 66.232 220.383 65.638 220.863 65.134C221.343 64.63 221.907 64.24 222.555 63.964C223.203 63.676 223.911 63.532 224.679 63.532C225.507 63.532 226.209 63.682 226.785 63.982C227.361 64.27 227.799 64.696 228.099 65.26C228.411 65.812 228.567 66.484 228.567 67.276C228.579 68.392 228.369 69.388 227.937 70.264C227.517 71.14 226.917 71.83 226.137 72.334C225.369 72.826 224.463 73.072 223.419 73.072ZM223.599 72.262C224.451 72.262 225.207 72.058 225.867 71.65C226.527 71.242 227.049 70.678 227.433 69.958C227.817 69.226 228.009 68.404 228.009 67.492C228.009 66.484 227.715 65.71 227.127 65.17C226.551 64.618 225.735 64.342 224.679 64.342C223.839 64.342 223.083 64.552 222.411 64.972C221.751 65.38 221.229 65.944 220.845 66.664C220.461 67.384 220.269 68.2 220.269 69.112C220.269 70.108 220.557 70.882 221.133 71.434C221.721 71.986 222.543 72.262 223.599 72.262ZM227.019 73L227.595 70.066L228.117 68.428L228.243 66.7L228.855 63.604H229.755L227.883 73H227.019ZM231.659 73L234.323 59.644H235.223L232.559 73H231.659ZM249.726 63.532C250.578 63.532 251.262 63.7 251.778 64.036C252.306 64.36 252.666 64.828 252.858 65.44C253.05 66.04 253.062 66.748 252.894 67.564L251.796 73H250.896L251.994 67.564C252.186 66.568 252.078 65.782 251.67 65.206C251.274 64.63 250.566 64.342 249.546 64.342C248.538 64.342 247.686 64.624 246.99 65.188C246.294 65.74 245.832 66.568 245.604 67.672L244.524 73H243.624L244.722 67.564C244.914 66.568 244.806 65.782 244.398 65.206C244.002 64.63 243.294 64.342 242.274 64.342C241.242 64.342 240.378 64.642 239.682 65.242C238.986 65.842 238.518 66.724 238.278 67.888L237.252 73H236.352L238.224 63.604H239.106L238.566 66.322L238.332 66.088C238.776 65.2 239.358 64.552 240.078 64.144C240.798 63.736 241.608 63.532 242.508 63.532C243.18 63.532 243.75 63.646 244.218 63.874C244.698 64.102 245.064 64.426 245.316 64.846C245.568 65.266 245.706 65.77 245.73 66.358L245.28 66.25C245.736 65.338 246.348 64.66 247.116 64.216C247.884 63.76 248.754 63.532 249.726 63.532ZM255.513 73L257.385 63.604H258.285L256.413 73H255.513ZM258.393 61.318C258.201 61.318 258.039 61.252 257.907 61.12C257.775 60.988 257.709 60.832 257.709 60.652C257.709 60.436 257.781 60.25 257.925 60.094C258.081 59.938 258.273 59.86 258.501 59.86C258.705 59.86 258.873 59.926 259.005 60.058C259.137 60.19 259.203 60.346 259.203 60.526C259.203 60.754 259.125 60.946 258.969 61.102C258.813 61.246 258.621 61.318 258.393 61.318ZM262.78 73.072C262.036 73.072 261.328 72.964 260.656 72.748C259.996 72.52 259.486 72.232 259.126 71.884L259.612 71.182C259.96 71.518 260.422 71.788 260.998 71.992C261.586 72.184 262.204 72.28 262.852 72.28C263.824 72.28 264.574 72.106 265.102 71.758C265.642 71.41 265.912 70.936 265.912 70.336C265.912 69.928 265.78 69.622 265.516 69.418C265.264 69.214 264.928 69.058 264.508 68.95C264.1 68.842 263.662 68.74 263.194 68.644C262.738 68.548 262.3 68.428 261.88 68.284C261.472 68.14 261.136 67.918 260.872 67.618C260.62 67.318 260.494 66.904 260.494 66.376C260.494 65.8 260.656 65.302 260.98 64.882C261.304 64.45 261.76 64.12 262.348 63.892C262.936 63.652 263.626 63.532 264.418 63.532C265.006 63.532 265.582 63.616 266.146 63.784C266.722 63.94 267.178 64.162 267.514 64.45L267.1 65.152C266.74 64.876 266.314 64.672 265.822 64.54C265.342 64.396 264.85 64.324 264.346 64.324C263.422 64.324 262.696 64.504 262.168 64.864C261.64 65.224 261.376 65.698 261.376 66.286C261.376 66.694 261.508 67.006 261.772 67.222C262.036 67.438 262.372 67.6 262.78 67.708C263.188 67.816 263.626 67.918 264.094 68.014C264.562 68.098 265 68.218 265.408 68.374C265.828 68.518 266.164 68.734 266.416 69.022C266.68 69.31 266.812 69.718 266.812 70.246C266.812 70.834 266.644 71.344 266.308 71.776C265.972 72.196 265.504 72.52 264.904 72.748C264.304 72.964 263.596 73.072 262.78 73.072ZM271.592 73.072C271.076 73.072 270.638 72.964 270.278 72.748C269.93 72.532 269.69 72.22 269.558 71.812C269.426 71.404 269.414 70.918 269.522 70.354L271.286 61.552H272.186L270.44 70.282C270.308 70.942 270.35 71.446 270.566 71.794C270.794 72.13 271.208 72.298 271.808 72.298C272.096 72.298 272.366 72.256 272.618 72.172C272.882 72.076 273.122 71.944 273.338 71.776L273.608 72.442C273.32 72.67 272.996 72.832 272.636 72.928C272.288 73.024 271.94 73.072 271.592 73.072ZM268.982 64.378L269.126 63.604H274.76L274.616 64.378H268.982ZM279.862 73.072C279.034 73.072 278.35 72.91 277.81 72.586C277.282 72.25 276.922 71.782 276.73 71.182C276.538 70.57 276.52 69.856 276.676 69.04L277.756 63.604H278.656L277.576 69.04C277.384 70.036 277.492 70.822 277.9 71.398C278.32 71.974 279.052 72.262 280.096 72.262C281.164 72.262 282.052 71.968 282.76 71.38C283.48 70.78 283.954 69.892 284.182 68.716L285.208 63.604H286.108L284.236 73H283.354L283.894 70.282L284.128 70.516C283.684 71.404 283.09 72.052 282.346 72.46C281.614 72.868 280.786 73.072 279.862 73.072ZM290.589 73.072C289.845 73.072 289.137 72.964 288.465 72.748C287.805 72.52 287.295 72.232 286.935 71.884L287.421 71.182C287.769 71.518 288.231 71.788 288.807 71.992C289.395 72.184 290.013 72.28 290.661 72.28C291.633 72.28 292.383 72.106 292.911 71.758C293.451 71.41 293.721 70.936 293.721 70.336C293.721 69.928 293.589 69.622 293.325 69.418C293.073 69.214 292.737 69.058 292.317 68.95C291.909 68.842 291.471 68.74 291.003 68.644C290.547 68.548 290.109 68.428 289.689 68.284C289.281 68.14 288.945 67.918 288.681 67.618C288.429 67.318 288.303 66.904 288.303 66.376C288.303 65.8 288.465 65.302 288.789 64.882C289.113 64.45 289.569 64.12 290.157 63.892C290.745 63.652 291.435 63.532 292.227 63.532C292.815 63.532 293.391 63.616 293.955 63.784C294.531 63.94 294.987 64.162 295.323 64.45L294.909 65.152C294.549 64.876 294.123 64.672 293.631 64.54C293.151 64.396 292.659 64.324 292.155 64.324C291.231 64.324 290.505 64.504 289.977 64.864C289.449 65.224 289.185 65.698 289.185 66.286C289.185 66.694 289.317 67.006 289.581 67.222C289.845 67.438 290.181 67.6 290.589 67.708C290.997 67.816 291.435 67.918 291.903 68.014C292.371 68.098 292.809 68.218 293.217 68.374C293.637 68.518 293.973 68.734 294.225 69.022C294.489 69.31 294.621 69.718 294.621 70.246C294.621 70.834 294.453 71.344 294.117 71.776C293.781 72.196 293.313 72.52 292.713 72.748C292.113 72.964 291.405 73.072 290.589 73.072ZM299.091 76.564C298.707 76.564 298.353 76.51 298.029 76.402C297.693 76.294 297.411 76.144 297.183 75.952L297.651 75.268C298.035 75.616 298.527 75.79 299.127 75.79C299.679 75.79 300.117 75.634 300.441 75.322C300.777 75.022 301.011 74.536 301.143 73.864L303.195 63.604H304.095L302.025 73.936C301.689 75.688 300.711 76.564 299.091 76.564ZM304.185 61.318C303.993 61.318 303.831 61.252 303.699 61.12C303.567 60.988 303.501 60.832 303.501 60.652C303.501 60.436 303.573 60.25 303.717 60.094C303.873 59.938 304.065 59.86 304.293 59.86C304.497 59.86 304.665 59.926 304.797 60.058C304.929 60.19 304.995 60.346 304.995 60.526C304.995 60.754 304.917 60.946 304.761 61.102C304.605 61.246 304.413 61.318 304.185 61.318ZM309.921 73.072C309.117 73.072 308.409 72.916 307.797 72.604C307.185 72.292 306.711 71.842 306.375 71.254C306.039 70.666 305.871 69.97 305.871 69.166C305.871 68.35 305.997 67.6 306.249 66.916C306.513 66.232 306.885 65.638 307.365 65.134C307.845 64.63 308.409 64.24 309.057 63.964C309.705 63.676 310.413 63.532 311.181 63.532C312.009 63.532 312.711 63.682 313.287 63.982C313.863 64.27 314.301 64.696 314.601 65.26C314.913 65.812 315.069 66.484 315.069 67.276C315.081 68.392 314.871 69.388 314.439 70.264C314.019 71.14 313.419 71.83 312.639 72.334C311.871 72.826 310.965 73.072 309.921 73.072ZM310.101 72.262C310.953 72.262 311.709 72.058 312.369 71.65C313.029 71.242 313.551 70.678 313.935 69.958C314.319 69.226 314.511 68.404 314.511 67.492C314.511 66.484 314.217 65.71 313.629 65.17C313.053 64.618 312.237 64.342 311.181 64.342C310.341 64.342 309.585 64.552 308.913 64.972C308.253 65.38 307.731 65.944 307.347 66.664C306.963 67.384 306.771 68.2 306.771 69.112C306.771 70.108 307.059 70.882 307.635 71.434C308.223 71.986 309.045 72.262 310.101 72.262ZM313.521 73L314.097 70.066L314.619 68.428L314.745 66.7L315.357 63.604H316.257L314.385 73H313.521ZM336.158 63.532C337.01 63.532 337.694 63.7 338.21 64.036C338.738 64.36 339.098 64.828 339.29 65.44C339.482 66.04 339.494 66.748 339.326 67.564L338.228 73H337.328L338.426 67.564C338.618 66.568 338.51 65.782 338.102 65.206C337.706 64.63 336.998 64.342 335.978 64.342C334.97 64.342 334.118 64.624 333.422 65.188C332.726 65.74 332.264 66.568 332.036 67.672L330.956 73H330.056L331.154 67.564C331.346 66.568 331.238 65.782 330.83 65.206C330.434 64.63 329.726 64.342 328.706 64.342C327.674 64.342 326.81 64.642 326.114 65.242C325.418 65.842 324.95 66.724 324.71 67.888L323.684 73H322.784L324.656 63.604H325.538L324.998 66.322L324.764 66.088C325.208 65.2 325.79 64.552 326.51 64.144C327.23 63.736 328.04 63.532 328.94 63.532C329.612 63.532 330.182 63.646 330.65 63.874C331.13 64.102 331.496 64.426 331.748 64.846C332 65.266 332.138 65.77 332.162 66.358L331.712 66.25C332.168 65.338 332.78 64.66 333.548 64.216C334.316 63.76 335.186 63.532 336.158 63.532ZM340.994 76.564C340.574 76.564 340.172 76.492 339.788 76.348C339.404 76.204 339.098 76 338.87 75.736L339.392 75.07C339.596 75.31 339.842 75.484 340.13 75.592C340.406 75.712 340.724 75.772 341.084 75.772C341.504 75.772 341.888 75.658 342.236 75.43C342.596 75.202 342.98 74.776 343.388 74.152L344.378 72.658L344.522 72.496L350.264 63.604H351.2L344.18 74.386C343.82 74.938 343.472 75.37 343.136 75.682C342.812 76.006 342.476 76.234 342.128 76.366C341.792 76.498 341.414 76.564 340.994 76.564ZM344.252 73.234L341.804 63.604H342.722L344.936 72.442L344.252 73.234ZM350.451 76.564C350.031 76.564 349.629 76.492 349.245 76.348C348.861 76.204 348.555 76 348.327 75.736L348.849 75.07C349.053 75.31 349.299 75.484 349.587 75.592C349.863 75.712 350.181 75.772 350.541 75.772C350.961 75.772 351.345 75.658 351.693 75.43C352.053 75.202 352.437 74.776 352.845 74.152L353.835 72.658L353.979 72.496L359.721 63.604H360.657L353.637 74.386C353.277 74.938 352.929 75.37 352.593 75.682C352.269 76.006 351.933 76.234 351.585 76.366C351.249 76.498 350.871 76.564 350.451 76.564ZM353.709 73.234L351.261 63.604H352.179L354.393 72.442L353.709 73.234ZM367.017 63.532C367.869 63.532 368.559 63.7 369.087 64.036C369.627 64.36 369.993 64.828 370.185 65.44C370.389 66.04 370.407 66.748 370.239 67.564L369.159 73H368.259L369.339 67.564C369.543 66.568 369.429 65.782 368.997 65.206C368.577 64.63 367.839 64.342 366.783 64.342C365.715 64.342 364.821 64.642 364.101 65.242C363.381 65.83 362.901 66.712 362.661 67.888L361.635 73H360.735L362.607 63.604H363.489L362.949 66.322L362.715 66.088C363.159 65.2 363.753 64.552 364.497 64.144C365.241 63.736 366.081 63.532 367.017 63.532ZM375.637 73.072C375.121 73.072 374.683 72.964 374.323 72.748C373.975 72.532 373.735 72.22 373.603 71.812C373.471 71.404 373.459 70.918 373.567 70.354L375.331 61.552H376.231L374.485 70.282C374.353 70.942 374.395 71.446 374.611 71.794C374.839 72.13 375.253 72.298 375.853 72.298C376.141 72.298 376.411 72.256 376.663 72.172C376.927 72.076 377.167 71.944 377.383 71.776L377.653 72.442C377.365 72.67 377.041 72.832 376.681 72.928C376.333 73.024 375.985 73.072 375.637 73.072ZM373.027 64.378L373.171 63.604H378.805L378.661 64.378H373.027ZM380.018 73L381.89 63.604H382.79L380.918 73H380.018ZM382.898 61.318C382.706 61.318 382.544 61.252 382.412 61.12C382.28 60.988 382.214 60.832 382.214 60.652C382.214 60.436 382.286 60.25 382.43 60.094C382.586 59.938 382.778 59.86 383.006 59.86C383.21 59.86 383.378 59.926 383.51 60.058C383.642 60.19 383.708 60.346 383.708 60.526C383.708 60.754 383.63 60.946 383.474 61.102C383.318 61.246 383.126 61.318 382.898 61.318Z" fill="black"/>
</g>
<defs>
<clipPath id="clip0_0_1">
<rect width="396" height="77" fill="white"/>
</clipPath>
</defs>
</svg>
